<?xml version="1.0" encoding="UTF-8"?> <svg xmlns:xlink="http://www.w3.org/1999/xlink" xmlns="http://www.w3.org/2000/svg" version="1.1" viewBox="0.0 0.0 769.6010498687664 100.0" fill="none" stroke="none" stroke-linecap="square" stroke-miterlimit="10"><clipPath id="p.0"><path d="m0 0l769.6011 0l0 100.0l-769.6011 0l0 -100.0z" clip-rule="nonzero"></path></clipPath><g clip-path="url(#p.0)"><path fill="#000000" fill-opacity="0.0" d="m0 0l769.6011 0l0 100.0l-769.6011 0z" fill-rule="evenodd"></path><path fill="#000000" fill-opacity="0.0" d="m-48.007874 -35.46719l864.28345 0l0 140.0l-864.28345 0z" fill-rule="evenodd"></path><path fill="#000000" d="m3.796081 88.7328l0 -84.0l36.484375 0q7.90625 0 13.78125 2.765625q5.890625 2.75 9.125 7.796875q3.25 5.03125 3.25 11.875l0 1.4375q0 7.562502 -3.609375 12.250002q-3.59375 4.671875 -8.875 6.828125l0 2.171875q4.796875 0.234375 7.4375 3.296875q2.640625 3.0625 2.640625 8.09375l0 27.484371l-15.84375 0l0 -25.203121q0 -2.875 -1.5 -4.671875q-1.5 -1.8125 -4.96875 -1.8125l-22.078125 0l0 31.687496l-15.84375 0zm15.84375 -46.07812l18.953125 0q5.640625 0 8.8125 -3.0625q3.1875 -3.0625 3.1875 -8.093752l0 -1.203125q0 -5.046875 -3.125 -8.09375q-3.109375 -3.0625 -8.875 -3.0625l-18.953125 0l0 23.515627zm88.79306 47.76562q-8.875 0 -15.953125 -3.59375q-7.078125 -3.609375 -11.171875 -10.453125q-4.078125 -6.84375 -4.078125 -16.437496l0 -1.921875q0 -9.59375 4.078125 -16.4375q4.09375 -6.84375 11.171875 -10.437502q7.078125 -3.609375 15.953125 -3.609375q8.875 0 15.953125 3.609375q7.09375 3.593752 11.171875 10.437502q4.078125 6.84375 4.078125 16.4375l0 1.921875q0 9.593746 -4.078125 16.437496q-4.078125 6.84375 -11.171875 10.453125q-7.078125 3.59375 -15.953125 3.59375zm0 -13.453125q6.96875 0 11.515625 -4.5q4.5625 -4.5 4.5625 -12.890621l0 -1.203125q0 -8.40625 -4.5 -12.90625q-4.5 -4.5 -11.578125 -4.5q-6.953125 0 -11.515625 4.5q-4.5625 4.5 -4.5625 12.90625l0 1.203125q0 8.390621 4.5625 12.890621q4.5625 4.5 11.515625 4.5zm80.877426 13.453125q-8.03125 0 -12.359375 -2.765625q-4.3125 -2.765625 -6.359375 -6.125l-2.15625 0l0 7.203125l-14.875 0l0 -84.0l15.109375 0l0 31.312502l2.171875 0q1.3125 -2.15625 3.53125 -4.078127q2.21875 -1.921875 5.875 -3.171875q3.671875 -1.265625 9.0625 -1.265625q7.203125 0 13.3125 3.546875q6.1249847 3.531252 9.843735 10.375002q3.734375 6.84375 3.734375 16.5625l0 1.921875q0 9.718746 -3.734375 16.562496q-3.71875 6.828125 -9.843735 10.375q-6.109375 3.546875 -13.3125 3.546875zm-4.5625 -13.203125q6.96875 0 11.640625 -4.5q4.6875 -4.5 4.6875 -13.140621l0 -1.203125q0 -8.640625 -4.625 -13.140625q-4.609375 -4.5 -11.703125 -4.5q-6.953125 0 -11.640625 4.5q-4.671875 4.5 -4.671875 13.140625l0 1.203125q0 8.640621 4.671875 13.140621q4.6875 4.5 11.640625 4.5zm72.4818 13.203125q-8.875 0 -15.65625 -3.78125q-6.78125 -3.78125 -10.5625 -10.6875q-3.78125 -6.90625 -3.78125 -16.265621l0 -1.4375q0 -9.359375 3.71875 -16.25q3.71875 -6.90625 10.4375 -10.687502q6.734375 -3.78125 15.609375 -3.78125q8.765625 0 15.234375 3.90625q6.484375 3.890627 10.078125 10.796877q3.609375 6.90625 3.609375 16.015625l0 5.171875l-43.328125 0q0.25 6.109371 4.5625 9.953121q4.328125 3.84375 10.5625 3.84375q6.359375 0 9.359375 -2.765625q3.0 -2.765625 4.5625 -6.125l12.359375 6.484375q-1.6875 3.125 -4.875 6.78125q-3.171875 3.65625 -8.453125 6.25q-5.265625 2.578125 -13.4375 2.578125zm-14.515625 -38.281246l27.84375 0q-0.484375 -5.171875 -4.140625 -8.28125q-3.65625 -3.125 -9.546875 -3.125q-6.109375 0 -9.71875 3.125q-3.59375 3.109375 -4.4375 8.28125zm56.64618 36.593746l0 -59.515625l14.875 0l0 6.718752l2.15625 0q1.328125 -3.609375 4.375 -5.281252q3.0625 -1.6875 7.140625 -1.6875l7.203125 0l0 13.453127l-7.4375 0q-5.765625 0 -9.484375 3.0625q-3.71875 3.046875 -3.71875 9.40625l0 33.843746l-15.109375 0zm70.31683 0q-5.890625 0 -9.546875 -3.65625q-3.65625 -3.65625 -3.65625 -9.78125l0 -33.60937l-14.875 0l0 -12.468752l14.875 0l0 -18.484375l15.125 0l0 18.484375l16.3125 0l0 12.468752l-16.3125 0l0 30.968746q0 3.59375 3.359375 3.59375l11.515625 0l0 12.484375l-16.796875 0zm90.94995 1.6875q-8.640625 0 -15.65625 -3.90625q-7.015625 -3.90625 -11.15625 -11.40625q-4.140625 -7.5 -4.140625 -18.296871l0 -20.15625q0 -16.203127 9.109375 -24.906252q9.125 -8.703125 24.734375 -8.703125q15.46875 0 23.921875 8.234375q8.46875 8.21875 8.46875 22.250002l0 0.484375l-15.59375 0l0 -0.96875q0 -4.437502 -1.859375 -8.031252q-1.859375 -3.59375 -5.578125 -5.6875q-3.71875 -2.109375 -9.359375 -2.109375q-8.40625 0 -13.203125 5.15625q-4.796875 5.15625 -4.796875 14.046877l0 20.625q0 8.765621 4.796875 14.109371q4.796875 5.34375 13.4375 5.34375q8.640625 0 12.59375 -4.5625q3.96875 -4.5625 3.96875 -11.515621l0 -1.203125l-19.921875 0l0 -13.4375l35.515625 0l0 42.95312l-14.640625 0l0 -8.046875l-2.15625 0q-0.84375 2.046875 -2.703125 4.328125q-1.859375 2.28125 -5.578125 3.84375q-3.71875 1.5625 -10.203125 1.5625zm50.893066 -1.6875l0 -59.515625l15.109375 0l0 59.515625l-15.109375 0zm7.546875 -66.484375q-4.078125 0 -6.90625 -2.640625q-2.8125 -2.640625 -2.8125 -6.953125q0 -4.328125 2.8125 -6.96875q2.828125 -2.640625 6.90625 -2.640625q4.203125 0 6.953125 2.640625q2.765625 2.640625 2.765625 6.96875q0 4.3125 -2.765625 6.953125q-2.75 2.640625 -6.953125 2.640625zm24.373108 66.484375l0 -59.515625l14.875 0l0 6.718752l2.15625 0q1.328125 -3.609375 4.375 -5.281252q3.0625 -1.6875 7.140625 -1.6875l7.203125 0l0 13.453127l-7.4375 0q-5.765625 0 -9.484375 3.0625q-3.71875 3.046875 -3.71875 9.40625l0 33.843746l-15.109375 0zm64.548706 1.6875q-6.359375 0 -11.40625 -2.21875q-5.03125 -2.234375 -7.96875 -6.484375q-2.9375 -4.265625 -2.9375 -10.390625q0 -6.109375 2.9375 -10.249996q2.9375 -4.140625 8.15625 -6.234375q5.21875 -2.109375 11.9375 -2.109375l16.328125 0l0 -3.359375q0 -4.203125 -2.640625 -6.890625q-2.640625 -2.703125 -8.40625 -2.703125q-5.640625 0 -8.40625 2.578125q-2.75 2.578125 -3.59375 6.65625l-13.921875 -4.6875q1.453125 -4.546875 4.625 -8.328125q3.1875 -3.78125 8.515625 -6.125002q5.34375 -2.34375 13.03125 -2.34375q11.75 0 18.59375 5.890627q6.84375 5.875 6.84375 17.03125l0 22.203121q0 3.59375 3.359375 3.59375l4.796875 0l0 12.484375l-10.078125 0q-4.4375 0 -7.328125 -2.15625q-2.875 -2.15625 -2.875 -5.765625l0 -0.125l-2.28125 0q-0.46875 1.453125 -2.15625 3.796875q-1.6875 2.328125 -5.28125 4.140625q-3.59375 1.796875 -9.84375 1.796875zm2.640625 -12.25q6.359375 0 10.375 -3.53125q4.03125 -3.546875 4.03125 -9.421875l0 -1.203125l-15.234375 0q-4.203125 0 -6.609375 1.796875q-2.390625 1.796875 -2.390625 5.046875q0 3.234375 2.515625 5.28125q2.515625 2.03125 7.3125 2.03125zm48.25055 10.5625l0 -59.515625l14.875 0l0 6.718752l2.15625 0q1.328125 -3.609375 4.375 -5.281252q3.0625 -1.6875 7.140625 -1.6875l7.203125 0l0 13.453127l-7.4375 0q-5.765625 0 -9.484375 3.0625q-3.71875 3.046875 -3.71875 9.40625l0 33.843746l-15.109375 0zm69.359924 1.6875q-7.09375 0 -13.28125 -3.546875q-6.171875 -3.546875 -9.890625 -10.375q-3.71875 -6.84375 -3.71875 -16.562496l0 -1.921875q0 -9.71875 3.71875 -16.5625q3.71875 -6.84375 9.84375 -10.375002q6.125 -3.546875 13.328125 -3.546875q5.390625 0 9.046875 1.265625q3.671875 1.25 5.953125 3.171875q2.28125 1.9218769 3.46875 4.078127l2.171875 0l0 -31.312502l15.109375 0l0 84.0l-14.875 0l0 -7.203125l-2.15625 0q-2.046875 3.359375 -6.3125 6.125q-4.25 2.765625 -12.40625 2.765625zm4.546875 -13.203125q6.96875 0 11.640625 -4.5q4.6875 -4.5 4.6875 -13.140621l0 -1.203125q0 -8.640625 -4.625 -13.140625q-4.609375 -4.5 -11.703125 -4.5q-6.953125 0 -11.640625 4.5q-4.671875 4.5 -4.671875 13.140625l0 1.203125q0 8.640621 4.671875 13.140621q4.6875 4.5 11.640625 4.5z" fill-rule="nonzero"></path></g></svg> 